<?xml version="1.0" encoding="utf-8"?>
<!-- Generator: Adobe Illustrator 24.0.0, SVG Export Plug-In . SVG Version: 6.00 Build 0)  -->
<svg version="1.1" id="Layer_1" xmlns="http://www.w3.org/2000/svg" xmlns:xlink="http://www.w3.org/1999/xlink" x="0px" y="0px"
	 viewBox="0 0 560 288" style="enable-background:new 0 0 560 288;" xml:space="preserve">
<style type="text/css">
	.st0{clip-path:url(#SVGID_1_);}
	.st1{clip-path:url(#SVGID_2_);}
	.st2{clip-path:url(#SVGID_3_);}
	.st3{clip-path:url(#SVGID_4_);}
	.st4{fill:#F8A754;}
	.st5{clip-path:url(#SVGID_5_);}
	.st6{clip-path:url(#SVGID_6_);}
	.st7{clip-path:url(#SVGID_7_);}
	.st8{clip-path:url(#SVGID_8_);}
	.st9{clip-path:url(#SVGID_9_);}
	.st10{clip-path:url(#SVGID_10_);}
	.st11{clip-path:url(#SVGID_11_);}
	.st12{clip-path:url(#SVGID_12_);}
	.st13{fill:#F9C9C5;}
	.st14{clip-path:url(#SVGID_13_);}
	.st15{clip-path:url(#SVGID_14_);}
	.st16{clip-path:url(#SVGID_15_);}
	.st17{clip-path:url(#SVGID_16_);}
	.st18{fill:#E7BC2F;}
	.st19{clip-path:url(#SVGID_17_);}
	.st20{clip-path:url(#SVGID_18_);}
	.st21{clip-path:url(#SVGID_19_);}
	.st22{clip-path:url(#SVGID_20_);}
	.st23{fill:#D8C6B3;}
	.st24{clip-path:url(#SVGID_21_);}
	.st25{clip-path:url(#SVGID_22_);}
	.st26{clip-path:url(#SVGID_23_);}
	.st27{clip-path:url(#SVGID_24_);}
	.st28{clip-path:url(#SVGID_25_);}
	.st29{clip-path:url(#SVGID_26_);}
	.st30{clip-path:url(#SVGID_27_);}
	.st31{clip-path:url(#SVGID_28_);}
	.st32{clip-path:url(#SVGID_29_);}
	.st33{clip-path:url(#SVGID_30_);}
	.st34{clip-path:url(#SVGID_31_);}
	.st35{clip-path:url(#SVGID_32_);}
	.st36{fill:#DF8C63;}
	.st37{fill:#2B2B2B;}
</style>
<g>
	<defs>
		<rect id="SVGID_65_" x="52.2" y="51.5" width="188.7" height="148"/>
	</defs>
	<clipPath id="SVGID_1_">
		<use xlink:href="#SVGID_65_"  style="overflow:visible;"/>
	</clipPath>
	<g class="st0">
		<g>
			<defs>
				<polygon id="SVGID_67_" points="393.5,-184.6 613.1,143.2 209.1,440.8 -10.5,112.9 				"/>
			</defs>
			<clipPath id="SVGID_2_">
				<use xlink:href="#SVGID_67_"  style="overflow:visible;"/>
			</clipPath>
			<g class="st1">
				<g>
					<defs>
						<polygon id="SVGID_69_" points="393.5,-184.6 613.1,143.2 209.1,440.8 -10.5,112.9 						"/>
					</defs>
					<clipPath id="SVGID_3_">
						<use xlink:href="#SVGID_69_"  style="overflow:visible;"/>
					</clipPath>
					<g class="st2">
						<g>
							<defs>
								<polygon id="SVGID_71_" points="393.5,-184.6 613.1,143.2 209.1,440.8 -10.5,112.9 								"/>
							</defs>
							<clipPath id="SVGID_4_">
								<use xlink:href="#SVGID_71_"  style="overflow:visible;"/>
							</clipPath>
							<g class="st3">
								<path class="st4" d="M228.2,97.4c-3,2.6-5.7,4.8-8.3,7.1c-0.9,0.8-1.5,1.9-2.3,2.7c-7.5,6.7-14.9,13.5-22.4,20.1
									c-4.3,3.8-8.6,7.5-13.3,10.9c-2.8,2.2-5.4,4.6-7.9,7.1c-1,0.9-2.1,1.7-3.3,2.4c-3.9,2.8-7.7,5.9-11.9,8.3
									c-5.1,3.5-9.9,7.4-14.5,11.6c-7.3,5.7-14.7,11.4-22.1,17.1c-2.5,1.9-5,4-7.6,5.8c-2.4,1.7-5,3.1-7.5,4.6
									c-1.6,0.9-3.3,1.7-5,2.3c-3.8,1.7-7.7,2.2-11.7,1.5c-6.6-0.9-13.1-2.5-19.4-4.9c-3.1-1.3-5.8-3.1-8.3-5.4
									c-2.4-2.3-4.4-5-5.9-8.1c-1.5-2.7-2.4-5.6-3-8.6s-0.6-6.1-0.2-9.2c0.3-2.7,0.8-5.2,1-7.8c1-5.4,3.1-10.3,6.3-14.7
									c2.9-5.3,7.8-8,11.3-12.6c4.7-5.2,10.2-9,16.5-11.6c1.3-0.7,2.5-1.8,3.8-2.4c4.9-2.4,9.8-4.8,14.7-7.2
									c1.2-0.5,2.2-1.2,3.2-2c2.9-2.7,6-5.2,9.2-7.6c5.6-3.6,9.7-9.2,15.8-12.1c1.5-1,2.9-2.2,4-3.7c0.3-0.4,0.7-0.7,1-1
									c4.4-2.8,8.6-5.7,13.2-8.2c5.8-3.1,11.8-5.9,17.7-8.7c6.2-2.5,12.6-4.4,19.2-5.8c3.4-1,6.9-1.9,10.2-3.1
									c5.2-1.8,10.4-2.5,15.9-2c0.6,0.1,1.1,0.1,1.6,0.1c2.4,0.2,4.6,0.8,6.8,1.8c2.2,1,4.2,2.3,5.9,4c3.9,3.3,6.7,7.5,8.2,12.5
									c0.5,1.6,0.6,3.2,0.4,4.8c-0.3,3.7-1.3,7.1-3,10.4C234.3,89.9,231.5,93.9,228.2,97.4z"/>
							</g>
						</g>
					</g>
				</g>
			</g>
		</g>
	</g>
</g>
<g>
	<defs>
		<rect id="SVGID_73_" x="279.2" y="66" width="280.8" height="222"/>
	</defs>
	<clipPath id="SVGID_5_">
		<use xlink:href="#SVGID_73_"  style="overflow:visible;"/>
	</clipPath>
	<g class="st5">
		<g>
			<defs>
				<polygon id="SVGID_75_" points="393.5,-184.6 613.1,143.2 209.1,440.8 -10.5,112.9 				"/>
			</defs>
			<clipPath id="SVGID_6_">
				<use xlink:href="#SVGID_75_"  style="overflow:visible;"/>
			</clipPath>
			<g class="st6">
				<g>
					<defs>
						<polygon id="SVGID_77_" points="393.5,-184.6 613.1,143.2 209.1,440.8 -10.5,112.9 						"/>
					</defs>
					<clipPath id="SVGID_7_">
						<use xlink:href="#SVGID_77_"  style="overflow:visible;"/>
					</clipPath>
					<g class="st7">
						<g>
							<defs>
								<polygon id="SVGID_79_" points="393.5,-184.6 613.1,143.2 209.1,440.8 -10.5,112.9 								"/>
							</defs>
							<clipPath id="SVGID_8_">
								<use xlink:href="#SVGID_79_"  style="overflow:visible;"/>
							</clipPath>
							<g class="st8">
								<path class="st4" d="M493.7,81.9c-5.6,4.1-11.3,8.2-16.9,12.4c-10.1,7.6-20.3,15.2-30.3,23c-5.2,4.1-10.1,8.6-15.2,12.7
									c-2.3,1.9-5,3.4-7.4,5.2c-7.3,5.6-14.7,11.2-22,16.8c-5.2,4.1-10.4,8.1-15.5,12.4c-3.8,3.2-7.4,6.8-11.2,10.1
									c-3.3,2.9-6.7,5.6-10,8.4c-4.5,3.7-9.1,7.3-13.7,10.9c-8.7,6.8-17.5,13.6-26.3,20.5c-2.5,2-4.9,4-7.5,5.9
									c-2.2,1.6-4.7,2.8-6.9,4.6c-6,4.9-13.3,8-18.4,14.4c-0.9,1.2-1.9,2.2-3.1,3.1c-3.6,3-6.3,6.8-8.2,11.2
									c-1.1,2.2-1.6,4.6-1.7,7c-0.4,3.1-0.2,6.1,0.5,9.1c0.7,3,2,5.8,3.7,8.3c1.9,2.6,4.3,4.6,7.2,5.9c5.2,2.8,10.7,4,16.6,3.6
									c5.1,0.3,10.1,0.1,15.1-0.9c5.8-1.4,11.5-3.4,16.9-6c5-2.8,10.3-5.2,15.3-8c3-1.7,5.7-3.8,8.5-5.7c3.8-2.9,7.7-5.6,11.7-8
									c6.7-4,13-8.5,19-13.6c5-3.9,9.6-8.3,14.5-12.4c3.3-2.8,6.8-5.5,10.1-8.2c0.8-0.5,1.4-1.2,2-2c6.6-10.2,16.5-16.5,25.5-23.7
									c11.8-9.4,23.7-18.6,35.7-27.8c4-3.1,8.1-5.8,12.2-8.7c0.3-0.2,0.7-0.4,1-0.6c7.1-5.6,14.2-11,21.1-16.8
									c3-2.8,6.2-5.3,9.6-7.7c7.1-5.1,13.7-10.8,19.7-17.2c2.5-2.4,4.7-5.2,7.3-7.4c2.7-2.5,4.6-5.5,5.8-9.1
									c0.5-1.1,0.8-2.3,1-3.5c0.2-1.2,0.2-2.4,0.1-3.7c-0.1-1.2-0.4-2.4-0.8-3.6c-0.4-1.2-0.9-2.2-1.6-3.2
									c-2.1-3.4-3.4-7.4-5.3-10.9c-0.9-1.8-1.9-3.5-3.2-5c-1.3-1.5-2.8-2.8-4.4-3.9c-1.6-1.1-3.4-1.9-5.2-2.4
									c-1.9-0.6-3.7-0.8-5.7-0.8c-5.8,0.1-11.4,1-16.9,2.8c-1.5,0.5-2.9,1.2-4.2,2C505.8,74.4,499.6,77.9,493.7,81.9z"/>
							</g>
						</g>
					</g>
				</g>
			</g>
		</g>
	</g>
</g>
<g>
	<defs>
		<rect id="SVGID_81_" x="204.1" y="30.6" width="182.6" height="146.4"/>
	</defs>
	<clipPath id="SVGID_9_">
		<use xlink:href="#SVGID_81_"  style="overflow:visible;"/>
	</clipPath>
	<g class="st9">
		<g>
			<defs>
				<polygon id="SVGID_83_" points="393.5,-184.6 613.1,143.2 209.1,440.8 -10.5,112.9 				"/>
			</defs>
			<clipPath id="SVGID_10_">
				<use xlink:href="#SVGID_83_"  style="overflow:visible;"/>
			</clipPath>
			<g class="st10">
				<g>
					<defs>
						<polygon id="SVGID_85_" points="393.5,-184.6 613.1,143.2 209.1,440.8 -10.5,112.9 						"/>
					</defs>
					<clipPath id="SVGID_11_">
						<use xlink:href="#SVGID_85_"  style="overflow:visible;"/>
					</clipPath>
					<g class="st11">
						<g>
							<defs>
								<polygon id="SVGID_87_" points="393.5,-184.6 613.1,143.2 209.1,440.8 -10.5,112.9 								"/>
							</defs>
							<clipPath id="SVGID_12_">
								<use xlink:href="#SVGID_87_"  style="overflow:visible;"/>
							</clipPath>
							<g class="st12">
								<path class="st13" d="M259.7,163c5.3-4.2,10.5-8.4,15.8-12.5c4.1-3.1,8.3-6.1,12.3-9.3c6.3-5,12.5-10.1,18.8-15.1
									c1.6-1.3,3.5-2.2,5.1-3.5c7.3-5.8,15-11.2,21.9-17.6c8.1-7.5,16.9-13.9,25-21.4c2.9-2.7,5.5-5.9,8.2-8.8
									c4.6-4,8.5-8.7,11.7-14.1c1-2.6,2.3-5.1,3.7-7.5c1.6-1.9,2.6-4.1,3.2-6.6c0.4-2.2,0.1-4.3-1-6.3c-0.8-1.4-1.7-2.6-2.7-3.8
									s-2.2-2.1-3.5-3c-1.3-0.8-2.6-1.5-4-2.1c-1.4-0.5-2.9-0.9-4.4-1c-2,0-3.8,0.4-5.6,1.3c-3,1.1-6.3,1.6-9.2,2.9
									c-5,2.2-10,4.5-14.9,7.2C333,45.9,326,50,319,54.2c-7.1,4.2-14.4,8.2-21.2,12.8c-11.2,7.6-23.1,14.2-32.9,23.9
									c-4.2,4-9,7.3-13.6,11c-1.9,1.6-3.8,3.4-5.6,5c-5,4.4-10.2,8.4-14.9,13.2c-5.9,5.4-11.3,11.3-16,17.8
									c-3.5,5.5-6.6,11.4-9,17.6c-0.4,1.3-0.7,2.6-0.9,4c-2,7.8,3.6,12.7,9.9,14.7c3.8,1.6,7.7,2.2,11.8,1.8
									c4.2-0.8,8.4-1.7,12.5-2.9c2.6-0.7,5-2.1,7.6-2.8C251.4,168.7,255.8,166.3,259.7,163z"/>
							</g>
						</g>
					</g>
				</g>
			</g>
		</g>
	</g>
</g>
<g>
	<defs>
		<rect id="SVGID_89_" x="380.5" width="145.8" height="120.7"/>
	</defs>
	<clipPath id="SVGID_13_">
		<use xlink:href="#SVGID_89_"  style="overflow:visible;"/>
	</clipPath>
	<g class="st14">
		<g>
			<defs>
				<polygon id="SVGID_91_" points="393.5,-184.6 613.1,143.2 209.1,440.8 -10.5,112.9 				"/>
			</defs>
			<clipPath id="SVGID_14_">
				<use xlink:href="#SVGID_91_"  style="overflow:visible;"/>
			</clipPath>
			<g class="st15">
				<g>
					<defs>
						<polygon id="SVGID_93_" points="393.5,-184.6 613.1,143.2 209.1,440.8 -10.5,112.9 						"/>
					</defs>
					<clipPath id="SVGID_15_">
						<use xlink:href="#SVGID_93_"  style="overflow:visible;"/>
					</clipPath>
					<g class="st16">
						<g>
							<defs>
								<polygon id="SVGID_95_" points="393.5,-184.6 613.1,143.2 209.1,440.8 -10.5,112.9 								"/>
							</defs>
							<clipPath id="SVGID_16_">
								<use xlink:href="#SVGID_95_"  style="overflow:visible;"/>
							</clipPath>
							<g class="st17">
								<path class="st18" d="M443.3,33.4c-7.3,5.1-14.7,10.1-22,15.4C410,56.4,399.6,65.2,390,75c-2.2,2.4-4,5.2-5.4,8.2
									s-2.3,6.2-2.7,9.6c-0.2,1.4-0.1,2.7,0.1,4.1c0.3,2.1,0.9,4.2,1.6,6.2c0.8,2,1.8,3.9,3,5.6c1.2,1.8,2.6,3.3,4.1,4.8
									c1.6,1.4,3.2,2.6,5.1,3.6c5.8,2.8,12.3,4.7,18.7,0.5c1-0.7,2.1-1.1,3.3-1.3c4.5-1,8.6-3.1,12.1-6.2
									c6.6-4.8,13.3-9.6,19.7-14.7c6.7-5.3,13.4-10.9,19.8-16.6c9.1-8.1,18-16.5,27.1-24.6c8.5-7.4,16.5-15.4,24-23.9
									c0.8-0.8,1.5-1.7,2.1-2.7c0.6-1,1.1-2,1.5-3.1c0.4-1.1,0.7-2.2,0.9-3.4c0.2-1.2,0.2-2.3,0.2-3.5c-0.1-1.2-0.2-2.3-0.5-3.5
									c-0.3-1.1-0.7-2.2-1.2-3.3c-0.5-1-1.1-2-1.8-2.9c-0.7-0.9-1.5-1.7-2.4-2.5C517.8,4.1,516,3,514,2.3s-4-1.1-6.1-1.1
									c-4.5-0.3-8.8,0.7-12.9,2.7c-11.3,5.8-22.7,11.5-33.9,17.7c-6.2,3.4-12,7.7-17.9,11.6L443.3,33.4z"/>
							</g>
						</g>
					</g>
				</g>
			</g>
		</g>
	</g>
</g>
<g>
	<defs>
		<rect id="SVGID_97_" y="72.4" width="76.7" height="67.6"/>
	</defs>
	<clipPath id="SVGID_17_">
		<use xlink:href="#SVGID_97_"  style="overflow:visible;"/>
	</clipPath>
	<g class="st19">
		<g>
			<defs>
				<polygon id="SVGID_99_" points="393.5,-184.6 613.1,143.2 209.1,440.8 -10.5,112.9 				"/>
			</defs>
			<clipPath id="SVGID_18_">
				<use xlink:href="#SVGID_99_"  style="overflow:visible;"/>
			</clipPath>
			<g class="st20">
				<g>
					<defs>
						<polygon id="SVGID_101_" points="393.5,-184.6 613.1,143.2 209.1,440.8 -10.5,112.9 						"/>
					</defs>
					<clipPath id="SVGID_19_">
						<use xlink:href="#SVGID_101_"  style="overflow:visible;"/>
					</clipPath>
					<g class="st21">
						<g>
							<defs>
								<polygon id="SVGID_103_" points="393.5,-184.6 613.1,143.2 209.1,440.8 -10.5,112.9 								"/>
							</defs>
							<clipPath id="SVGID_20_">
								<use xlink:href="#SVGID_103_"  style="overflow:visible;"/>
							</clipPath>
							<g class="st22">
								<path class="st23" d="M34.2,82.2c-9,5.9-16.8,13.1-23.4,21.8c-3.4,4.1-6.2,8.7-8.2,13.7c-1.3,3.9-1.7,8-1.1,12.1
									c0,1,0.4,1.8,1,2.6c2.6,2.5,5.5,4.5,8.7,5.9c1.9,0.6,3.9,1,5.9,1.1c2,0.1,4,0,6-0.3s3.9-0.9,5.8-1.7
									c1.9-0.8,3.6-1.8,5.3-3.1c4.4-3.2,8.5-6.8,12.1-10.8c4.5-4.5,9-9,13.6-13.5c3.2-3.2,6.5-6.3,9.5-9.6
									c1.3-1.5,2.4-3.2,3.2-5.1c1-2.4,1.4-5,2.3-7.4c0.3-0.8,0.5-1.6,0.6-2.5c0.1-0.9,0-1.7-0.2-2.5c-0.2-0.8-0.5-1.6-1-2.3
									c-0.5-0.7-1-1.3-1.7-1.8c-1.3-1.4-2.8-2.6-4.4-3.5c-1.6-1-3.3-1.7-5.1-2.1c-1.8-0.5-3.6-0.6-5.5-0.6
									c-1.9,0.1-3.7,0.4-5.4,1.1C45.7,75.2,39.7,78.1,34.2,82.2z"/>
							</g>
						</g>
					</g>
				</g>
			</g>
		</g>
	</g>
</g>
<g>
	<defs>
		<rect id="SVGID_105_" x="457.2" y="167.3" width="76.7" height="72.4"/>
	</defs>
	<clipPath id="SVGID_21_">
		<use xlink:href="#SVGID_105_"  style="overflow:visible;"/>
	</clipPath>
	<g class="st24">
		<g>
			<defs>
				<polygon id="SVGID_107_" points="393.5,-184.6 613.1,143.2 209.1,440.8 -10.5,112.9 				"/>
			</defs>
			<clipPath id="SVGID_22_">
				<use xlink:href="#SVGID_107_"  style="overflow:visible;"/>
			</clipPath>
			<g class="st25">
				<g>
					<defs>
						<polygon id="SVGID_109_" points="393.5,-184.6 613.1,143.2 209.1,440.8 -10.5,112.9 						"/>
					</defs>
					<clipPath id="SVGID_23_">
						<use xlink:href="#SVGID_109_"  style="overflow:visible;"/>
					</clipPath>
					<g class="st26">
						<g>
							<defs>
								<polygon id="SVGID_111_" points="393.5,-184.6 613.1,143.2 209.1,440.8 -10.5,112.9 								"/>
							</defs>
							<clipPath id="SVGID_24_">
								<use xlink:href="#SVGID_111_"  style="overflow:visible;"/>
							</clipPath>
							<g class="st27">
								<path class="st13" d="M503,178.8c-2.2,1.4-5,3.2-7.7,5c-5.7,3.9-11.5,7.5-16.9,11.8c-7.3,5.1-13.4,11.5-18.4,19.1
									c-1,1.7-1.6,3.6-2,5.5c-0.4,2-0.5,3.9-0.2,5.9c0.2,1.2,0.6,2.4,1.3,3.4c0.7,1,1.6,1.8,2.7,2.4c2.8,1.9,5.9,3.4,8.8,5.2
									c1.5,0.8,3.1,1.3,4.9,1.4c1.7,0.1,3.4-0.2,5-0.9c3.3-1.2,6.4-3,9-5.4c9.2-7.9,17.1-17.3,26.2-25.4c2-1.8,3.5-4,5.3-5.9
									c3.2-3.2,6.4-6.3,9.6-9.5c0.4-0.4,0.8-0.8,1.1-1.2c1.1-2.5,1.8-5,1.8-7.8c0.1-2.7-0.4-5.3-1.5-7.9c-3.9-6.1-5-6.5-11.9-4.8
									C513.8,171.5,508.1,174.6,503,178.8z"/>
							</g>
						</g>
					</g>
				</g>
			</g>
		</g>
	</g>
</g>
<g>
	<defs>
		<rect id="SVGID_113_" x="285.4" y="109.4" width="81.3" height="75.6"/>
	</defs>
	<clipPath id="SVGID_25_">
		<use xlink:href="#SVGID_113_"  style="overflow:visible;"/>
	</clipPath>
	<g class="st28">
		<g>
			<defs>
				<polygon id="SVGID_115_" points="393.5,-184.6 613.1,143.2 209.1,440.8 -10.5,112.9 				"/>
			</defs>
			<clipPath id="SVGID_26_">
				<use xlink:href="#SVGID_115_"  style="overflow:visible;"/>
			</clipPath>
			<g class="st29">
				<g>
					<defs>
						<polygon id="SVGID_117_" points="393.5,-184.6 613.1,143.2 209.1,440.8 -10.5,112.9 						"/>
					</defs>
					<clipPath id="SVGID_27_">
						<use xlink:href="#SVGID_117_"  style="overflow:visible;"/>
					</clipPath>
					<g class="st30">
						<g>
							<defs>
								<polygon id="SVGID_119_" points="393.5,-184.6 613.1,143.2 209.1,440.8 -10.5,112.9 								"/>
							</defs>
							<clipPath id="SVGID_28_">
								<use xlink:href="#SVGID_119_"  style="overflow:visible;"/>
							</clipPath>
							<g class="st31">
								<path class="st23" d="M340,119.6c-4.8,3.2-9.6,6.5-14.5,9.7c-9.5,6.3-18.4,13.3-26.8,21.1c-4.3,4.2-8,8.9-11.2,14
									c-2.3,3.3-0.6,7.1,0.4,10.6c0.4,1.2,1,2.2,1.8,3.2c0.4,0.7,0.8,1.3,1.2,1.9c0.5,0.6,1,1.1,1.6,1.5c0.6,0.5,1.2,0.8,1.8,1.2
									c0.7,0.3,1.3,0.6,2,0.7c0.7,0.2,1.4,0.3,2.1,0.3c0.7,0,1.4,0,2.2-0.2c0.7-0.1,1.4-0.3,2.1-0.6c0.7-0.3,1.3-0.6,1.9-1.1
									c6.3-3.9,12-8.5,17.2-13.9c5.2-4.9,10.8-9.5,15.9-14.4c7.4-7.1,14.3-14.7,20.6-22.9c1.4-1.8,3-3.5,4.2-5.4
									c2.3-3.6,4.3-7.3,1.9-11.8c-0.3-0.7-0.8-1.4-1.4-2c-0.6-0.6-1.2-1-2-1.3c-0.7-0.3-1.5-0.5-2.3-0.4c-0.8,0-1.5,0.2-2.3,0.5
									c-2.6,1.1-5.2,2.6-7.7,3.9c-1.5,0.8-2.9,1.8-4.4,2.7c-1.5,0.9-2.9,1.7-4.4,2.6L340,119.6z"/>
							</g>
						</g>
					</g>
				</g>
			</g>
		</g>
	</g>
</g>
<g>
	<defs>
		<rect id="SVGID_121_" x="306.8" y="135.2" width="78.2" height="66"/>
	</defs>
	<clipPath id="SVGID_29_">
		<use xlink:href="#SVGID_121_"  style="overflow:visible;"/>
	</clipPath>
	<g class="st32">
		<g>
			<defs>
				<polygon id="SVGID_123_" points="393.5,-184.6 613.1,143.2 209.1,440.8 -10.5,112.9 				"/>
			</defs>
			<clipPath id="SVGID_30_">
				<use xlink:href="#SVGID_123_"  style="overflow:visible;"/>
			</clipPath>
			<g class="st33">
				<g>
					<defs>
						<polygon id="SVGID_125_" points="393.5,-184.6 613.1,143.2 209.1,440.8 -10.5,112.9 						"/>
					</defs>
					<clipPath id="SVGID_31_">
						<use xlink:href="#SVGID_125_"  style="overflow:visible;"/>
					</clipPath>
					<g class="st34">
						<g>
							<defs>
								<polygon id="SVGID_127_" points="393.5,-184.6 613.1,143.2 209.1,440.8 -10.5,112.9 								"/>
							</defs>
							<clipPath id="SVGID_32_">
								<use xlink:href="#SVGID_127_"  style="overflow:visible;"/>
							</clipPath>
							<g class="st35">
								<path class="st36" d="M354.7,173.5c6.2-5.1,12.6-10.1,18.7-15.3c3.2-2.9,6.3-6.1,9.1-9.4c0.8-1.6,1.2-3.4,1.1-5.2
									c0-1.8-0.5-3.6-1.3-5.2c-0.7-0.9-1.5-1.4-2.6-1.6c-2.9,0-5.7,0.4-8.4,1.4c-3.2,1.7-6.3,3.8-9.1,6.2
									c-3.5,2.8-6.9,5.7-10.4,8.6c-3.6,3.1-7.2,6.3-10.9,9.3c-6,5.4-12.4,10.4-19,14.9c-5.4,2.7-9.8,6.6-13.2,11.8
									c-0.3,0.5-0.6,1-0.8,1.6c-0.2,0.6-0.4,1.1-0.4,1.7c-0.1,0.6-0.1,1.2,0,1.8c0.1,0.6,0.2,1.2,0.4,1.7c0.2,0.6,0.4,1.1,0.8,1.6
									c0.3,0.5,0.7,0.9,1.1,1.3c0.4,0.4,0.9,0.7,1.4,1c0.5,0.3,1,0.5,1.6,0.6c1.8,0.4,3.6,0.4,5.4,0.1c1.8-0.4,3.5-1.1,5-2.1
									c3.6-2.7,7.3-5.2,10.9-7.9c3.6-2.7,7.1-5.5,10.5-8.4C348.1,179.2,351.3,176.3,354.7,173.5L354.7,173.5z"/>
							</g>
						</g>
					</g>
				</g>
			</g>
		</g>
	</g>
</g>
<g>
	<g>
		<g id="G">
			<path class="st37" d="M130.3,192.7c7.8,0,17.8-14.9,21.6-20.6c2.8-4.4,7-10.3,9.1-13.5c4.2-5.8,4.7-7.9,2.5-10.1
				c-0.8-0.8-1.7-1.4-2.8-1.4c-0.6,0-1.3,0.2-1.9,0.6c-1.5,0.8-12.5,17.5-14,19.8c-5.1,7.5-12.5,15.9-14,15.9
				c-1.1,0-2.6-3.2-3.8-7.9c-0.9-5-0.8-20,0.8-32.7c0.6-6.5,1.1-13.3,1.1-15.3c0-5-1.9-7.9-4.4-7.9c-1.5,0-3.2,1-4.9,3
				c-2.3,2.4-4.5,6.2-14.8,24l-1.9,3.4l0.2-7.1c0.4-8.3,0.2-9.9-2.3-11.3c-0.8-0.4-1.5-0.6-2.3-0.6c-2.8,0-5.5,3.2-8.7,10.1
				c-1.1,2.4-1.9,3.8-2.1,3.8c-0.4,0,0-2.8,1.3-9.1c1.7-9.3,3.6-15.7,5.1-17.5c1.5-1.6,1.5-5,0.2-6.1c-0.6-0.6-1.5-1-2.3-1
				c-1.5,0-3,0.8-4.2,2.2c-3,3.8-7.2,20-9.3,37.1c-1.1,9.1-1.3,21.6-0.2,23.8c0.8,1.8,2.3,2.8,3.8,2.8c0.6,0,1.1-0.2,1.7-0.4
				c1.9-1,2.8-3,6.6-14.1c1.5-4.6,2.3-6.3,2.6-6.3c0,0,0.2,0,0.2,0.4c0.2,3.4,0.9,11.1,5.9,11.1c2.8,0,5.9-4.2,11.7-14.5
				c3.2-6,6.4-11.5,7-12.7l1.1-1.8l-0.4,4c-1.3,16.3-1.5,22.2-0.9,28C118.6,178.1,120.5,192.7,130.3,192.7z"/>
		</g>
	</g>
</g>
<g>
	<g>
		<g id="H">
			<path class="st37" d="M168.9,193.9c1.9,0.4,4.5,0.8,7.2,0.8c10.8,0,20.6-5.4,29.1-11.9c9.6-7.5,28.8-28.8,28.8-31.8
				c0-2.2-2.1-4.2-4.4-4.2c-1.7,0-2.6,0.8-6.8,5.6c-21.8,24.8-33.7,33.3-46.9,33.3c-12.9,0-17-12.3-10.8-32.3l1.5-5.4l2.5,0.4
				c0.4,0,0.9,0.2,1.3,0.2c9.1,0,19.1-18.1,19.7-27.2c0.2-4,0-4.6-1.3-6c-1.5-1.6-2.8-2.6-4.5-2.6c-2.8,0-6.1,2.4-10.2,6.7
				c-7.6,8.1-14.4,21-18.2,34.5c-1.5,5-1.7,6.9-1.7,14.3c0,7.5,0,9.1,1.3,12.3C158,187.2,163.1,192.1,168.9,193.9z M175.4,136.2
				c-1.7,2.2-3.6,4.2-4.4,4.2c-0.2,0-0.2-0.2-0.2-0.4c0-1.6,9.5-15.7,10.2-15.1C181.4,125.5,177.6,133.2,175.4,136.2z"/>
		</g>
	</g>
</g>
<g>
	<g>
	</g>
</g>
<g>
	<g>
		<g id="J">
			<path class="st37" d="M281.3,227.7c0.9,0.6,2.3,1,3.6,1c13.8,0,24.4-31.2,27.1-41.9c2.1-7.9,1.5-7.3,17.4-21.4
				c15.1-13.3,14.6-12.9,14.2-14.9c-0.6-2.4-1.9-3.4-4.4-3.4c-2.3,0-4.2,1.4-16.3,12.3c-4.2,3.8-7.8,6.8-7.9,6.8
				c-0.2,0-0.4-2.2-0.6-5c-0.8-9.9-5.1-15.9-11-15.9c-8.5,0-16.8,12.9-20.6,19.4c-1.3,2.6-2.3,3.8-2.3,3c0-2.4,3.6-32.5,4.2-34.1
				c0.2-0.8,2.1-3.8,4-6.5c8.1-12.1,20.3-35.7,25-49.2c4.7-13.7,6.8-26.4,5.1-32.7c-0.9-4.2-4-7.1-7-7.1
				c-18.2,0-31.8,66.3-34.4,85.1c-0.8,6-1.3,7.9-2.5,7.9c-1.3,0-2.8,2.2-2.8,4c0,1.2,0.6,2.6,1.5,3.6l1.5,1.6l-1.5,12.5
				c-2.1,16.1-4.7,42.3-4.7,45c0,2.8,2.1,5.6,4.4,5.6c2.5,0,4-2.2,6.1-8.3c2.8-8.5,13.8-36.1,22.7-39.9c0.6-0.4,0.9-0.6,1.3-0.6
				c2.3,0,2.6,8.1,2.6,9.3c0.4,10.5,0.2,11.3-5.7,17.7c-5.7,6.3-11.2,13.9-14.9,20.2C277.4,215.4,276,224.1,281.3,227.7z
				 M294.6,208.6c-1.5,2.8-4,6.3-5.5,7.9l-2.5,3l1.1-3.4c0.6-2,2.3-5.4,3.6-7.7c2.3-4.2,9.1-14.1,9.5-14.1
				C301.4,194.3,297.2,204,294.6,208.6z M296.5,95.9c-5.1,10.9-7.9,16.1-8.3,16.1c-0.2,0-0.2-0.2,0-0.6
				c5.5-28.8,12.1-48.8,19.9-60.5c1.1-1.4,2.1-2.8,2.5-2.8c0.9,0,0,10.1-1.7,16.3C306.5,73.3,302.7,83,296.5,95.9z"/>
		</g>
	</g>
</g>
<g>
	<g>
		<g id="K">
			<path class="st37" d="M338.9,215.2c0.9,1,2.3,1.4,3.4,1.4c1.1,0,2.1-0.4,2.8-1.6c0.9-1.4,0.9-1.8-0.2-5.8
				c-0.9-3.8-1.1-6.8-0.9-22.6c0-10.5,0.4-24,0.9-32.5l1.1-14.3l3.6-6.8c10.4-19.6,19.1-42.1,22.7-58.7c2.3-10.1,2.5-22.2,0.4-30
				c-0.9-3.2-3.8-6.7-6.1-7.3c-0.4-0.2-0.9-0.2-1.3-0.2c-3.6,0-6.8,3.6-10.2,10.7c-7.8,16.3-12.5,38.7-16.5,78.8
				c-1.3,12.5-1.3,12.7-3,14.5c-2.3,2.2-2.3,4-0.4,6l1.5,1.6l-0.8,8.5c-0.4,4.6-0.8,17.7-0.8,28.8c0,18.1,0.2,21,1.1,24.2
				C337,211.8,338.1,214.2,338.9,215.2z M354.9,101.3c-4,10.7-6.1,15.1-6.4,15.1c-0.2,0-0.2-0.2-0.2-0.4c0-0.6,0.6-5.8,1.3-11.1
				c2.8-22.4,7.9-42.9,13.4-54.4c0.6-1.2,0.9-1.8,1.3-1.8c0.8,0,0.9,2.6,0.9,8.5C365.3,69.5,362.5,81.4,354.9,101.3z"/>
		</g>
	</g>
</g>
<g>
	<g>
		<g id="L">
			<path class="st37" d="M361.4,204.2c1.3,0.8,2.8,1.2,4.4,1.2c6.4,0,12.1-7.5,15.1-12.7c3.8-6.9,5.5-13.1,5.5-21l0.2-6.8l1.7,0.6
				c1.1,0.4,3.4,0.4,6.1,0.4c3.4,0,7.4-0.2,9.5-0.8c5.5-1.6,15.7-8.3,18-12.3c1.7-2.6-0.2-6-3.4-6c-1.1,0-3,1-5.9,3.2
				c-7,5.6-10,6.8-18.7,6.8c-6.4,0-9.3-1.8-12.3-7.7c-2.8-5.8-5.7-8.5-8.1-8.5h-1.7l3-6.3c3.4-7.1,6.4-11.5,7.6-11.5
				c1.1,0,2.8-2.6,2.8-4c0-1.8-2.3-3.8-4.2-3.8c-11,0-23.8,42.9-25.7,51.8c-1.7,7.9-1.9,21.8-0.8,27.2
				C355.5,198.5,358.3,202.7,361.4,204.2z M365.3,196.7c-0.4,0-1.1-1.4-1.9-3.2c-1.1-2.6-1.3-4-1.3-11.3c0.2-8.5,1.7-17.5,4.9-28
				l1.3-4.6l0.9,2.2c0.6,1.2,2.6,3.6,4.4,5.6c3,3,3.4,3.8,3.8,7.1c0.8,6,0.4,12.3-0.9,16.9C375.4,184.6,369.1,196.7,365.3,196.7z"/>
		</g>
	</g>
</g>
<g>
	<g>
		<g id="M">
			<path class="st37" d="M403.9,268.3c0.4,0.2,0.8,0.2,1.3,0.2c1.9,0,4.5-0.8,6.6-1.8c17.6-9.7,26.5-45.8,29.1-64.1l0.8-5l6.1-6.2
				c10.4-10.1,32.4-29.2,40.1-34.3c5.3-3.6,6.2-5.8,3.6-8.7c-0.6-0.6-1.5-1-2.5-1c-1.5,0-3.4,0.6-5.3,2
				c-6.2,4.2-29.1,23.4-36.9,31.1l-3.6,3.6l0.4-4.2c0.8-9.1,1.5-44.1,0.9-51.8c-0.6-8.3-0.9-9.7-4.4-10.5c-3.8,0-5.3,3.8-6.2,7.1
				l-1.5,4.4l-2.5-0.2c-9.6,0-15.1,17.5-17,25.2c-4.2,17.1-2.1,28.2,5.5,28.2c4.7,0,8.3-6,14.4-23.6l3.2-9.7l-0.2,12.1
				c-0.4,11.3-1.1,23-2.1,29.8c-0.2,2.8-0.9,3.8-5.1,8.9c-18.4,22.2-31,45.8-31,58.1C397.7,263.4,399.8,266.7,403.9,268.3z
				 M412.6,254.4c-0.8,1-4.7,5-6.1,5c-0.4,0-0.4-0.4-0.4-1.4c0-5.8,5.7-19,12.7-30c5.1-7.9,11.2-16.5,11.5-15.9
				c0.4,0.4-3.4,14.9-5.5,20.8C421.2,243.1,417.9,248.9,412.6,254.4z M422.9,161.2c-1.5,4.2-3,7.9-3.2,8.1c-0.9,1.2,0-7.5,1.7-14.3
				c0.4-2,5.3-16.9,7.4-16.9c0.2,0,0.2,0.4,0.4,1C429.5,140.5,426.8,150.1,422.9,161.2z"/>
		</g>
	</g>
</g>
</svg>
